<mxfile host="Electron" agent="Mozilla/5.0 (X11; Linux x86_64) AppleWebKit/537.36 (KHTML, like Gecko) draw.io/26.1.1 Chrome/132.0.6834.210 Electron/34.3.2 Safari/537.36" version="26.1.1">
  <diagram name="Page-1" id="rLo1q9Qd0Z6dPpDgeSFO">
    <mxGraphModel dx="6640" dy="1388" grid="1" gridSize="10" guides="1" tooltips="1" connect="1" arrows="1" fold="1" page="1" pageScale="5" pageWidth="850" pageHeight="1100" math="0" shadow="0">
      <root>
        <mxCell id="0" />
        <mxCell id="1" parent="0" />
        <mxCell id="ToU6loC46J24oxrMq6Bs-8" value="" style="edgeStyle=orthogonalEdgeStyle;rounded=0;orthogonalLoop=1;jettySize=auto;html=1;strokeColor=#FF0000;" parent="1" source="ToU6loC46J24oxrMq6Bs-6" edge="1">
          <mxGeometry relative="1" as="geometry">
            <mxPoint x="560.0000000000009" y="300" as="targetPoint" />
          </mxGeometry>
        </mxCell>
        <mxCell id="ToU6loC46J24oxrMq6Bs-6" value="User" style="whiteSpace=wrap;html=1;aspect=fixed;" parent="1" vertex="1">
          <mxGeometry x="250" y="260" width="80" height="80" as="geometry" />
        </mxCell>
        <mxCell id="ToU6loC46J24oxrMq6Bs-10" value="" style="edgeStyle=orthogonalEdgeStyle;rounded=0;orthogonalLoop=1;jettySize=auto;html=1;exitX=1;exitY=0.5;exitDx=0;exitDy=0;strokeColor=#FF0000;" parent="1" source="ToU6loC46J24oxrMq6Bs-325" target="ToU6loC46J24oxrMq6Bs-9" edge="1">
          <mxGeometry relative="1" as="geometry">
            <mxPoint x="640.0000000000009" y="300" as="sourcePoint" />
            <Array as="points">
              <mxPoint x="620" y="300" />
            </Array>
          </mxGeometry>
        </mxCell>
        <mxCell id="ToU6loC46J24oxrMq6Bs-32" value="" style="edgeStyle=orthogonalEdgeStyle;rounded=0;orthogonalLoop=1;jettySize=auto;html=1;strokeColor=#0000FF;" parent="1" source="ToU6loC46J24oxrMq6Bs-9" target="ToU6loC46J24oxrMq6Bs-31" edge="1">
          <mxGeometry relative="1" as="geometry" />
        </mxCell>
        <mxCell id="ToU6loC46J24oxrMq6Bs-58" value="" style="edgeStyle=orthogonalEdgeStyle;rounded=0;orthogonalLoop=1;jettySize=auto;html=1;strokeColor=#FF0000;" parent="1" source="ToU6loC46J24oxrMq6Bs-9" target="ToU6loC46J24oxrMq6Bs-57" edge="1">
          <mxGeometry relative="1" as="geometry">
            <Array as="points">
              <mxPoint x="960" y="540" />
              <mxPoint x="960" y="540" />
            </Array>
          </mxGeometry>
        </mxCell>
        <mxCell id="ToU6loC46J24oxrMq6Bs-59" value="" style="edgeStyle=orthogonalEdgeStyle;rounded=0;orthogonalLoop=1;jettySize=auto;html=1;exitX=0.5;exitY=1;exitDx=0;exitDy=0;strokeColor=#FF0000;" parent="1" source="ToU6loC46J24oxrMq6Bs-9" target="ToU6loC46J24oxrMq6Bs-13" edge="1">
          <mxGeometry relative="1" as="geometry">
            <mxPoint x="995" y="412.0000000000002" as="sourcePoint" />
            <mxPoint x="925" y="511.9999999999998" as="targetPoint" />
            <Array as="points">
              <mxPoint x="960" y="360" />
            </Array>
          </mxGeometry>
        </mxCell>
        <mxCell id="UtE5IbcF4sJG9WHfilwN-26" style="edgeStyle=orthogonalEdgeStyle;rounded=0;orthogonalLoop=1;jettySize=auto;html=1;exitX=0.75;exitY=1;exitDx=0;exitDy=0;entryX=0.5;entryY=0;entryDx=0;entryDy=0;strokeColor=#00FF00;" edge="1" parent="1" source="ToU6loC46J24oxrMq6Bs-9" target="UtE5IbcF4sJG9WHfilwN-23">
          <mxGeometry relative="1" as="geometry" />
        </mxCell>
        <mxCell id="ToU6loC46J24oxrMq6Bs-9" value="Customer" style="whiteSpace=wrap;html=1;aspect=fixed;" parent="1" vertex="1">
          <mxGeometry x="920" y="260" width="80" height="80" as="geometry" />
        </mxCell>
        <mxCell id="ToU6loC46J24oxrMq6Bs-16" value="" style="edgeStyle=orthogonalEdgeStyle;rounded=0;orthogonalLoop=1;jettySize=auto;html=1;strokeColor=#FF0000;" parent="1" source="ToU6loC46J24oxrMq6Bs-13" target="ToU6loC46J24oxrMq6Bs-15" edge="1">
          <mxGeometry relative="1" as="geometry" />
        </mxCell>
        <mxCell id="ToU6loC46J24oxrMq6Bs-13" value="has" style="rhombus;whiteSpace=wrap;html=1;" parent="1" vertex="1">
          <mxGeometry x="640" y="401" width="80" height="80" as="geometry" />
        </mxCell>
        <mxCell id="ToU6loC46J24oxrMq6Bs-21" value="" style="edgeStyle=orthogonalEdgeStyle;rounded=0;orthogonalLoop=1;jettySize=auto;html=1;strokeColor=#0000FF;" parent="1" source="ToU6loC46J24oxrMq6Bs-15" target="ToU6loC46J24oxrMq6Bs-20" edge="1">
          <mxGeometry relative="1" as="geometry" />
        </mxCell>
        <mxCell id="ToU6loC46J24oxrMq6Bs-15" value="Cart" style="whiteSpace=wrap;html=1;aspect=fixed;" parent="1" vertex="1">
          <mxGeometry x="640" y="520" width="80" height="80" as="geometry" />
        </mxCell>
        <mxCell id="ToU6loC46J24oxrMq6Bs-23" value="" style="edgeStyle=orthogonalEdgeStyle;rounded=0;orthogonalLoop=1;jettySize=auto;html=1;strokeColor=#0000FF;" parent="1" source="ToU6loC46J24oxrMq6Bs-20" target="ToU6loC46J24oxrMq6Bs-22" edge="1">
          <mxGeometry relative="1" as="geometry" />
        </mxCell>
        <mxCell id="ToU6loC46J24oxrMq6Bs-20" value="contains" style="rhombus;whiteSpace=wrap;html=1;" parent="1" vertex="1">
          <mxGeometry x="260" y="520" width="80" height="80" as="geometry" />
        </mxCell>
        <mxCell id="ToU6loC46J24oxrMq6Bs-26" value="" style="edgeStyle=orthogonalEdgeStyle;rounded=0;orthogonalLoop=1;jettySize=auto;html=1;exitX=0.5;exitY=1;exitDx=0;exitDy=0;strokeColor=#00FF00;" parent="1" source="ToU6loC46J24oxrMq6Bs-22" target="ToU6loC46J24oxrMq6Bs-25" edge="1">
          <mxGeometry relative="1" as="geometry" />
        </mxCell>
        <mxCell id="ToU6loC46J24oxrMq6Bs-22" value="Cart_Item" style="whiteSpace=wrap;html=1;aspect=fixed;" parent="1" vertex="1">
          <mxGeometry x="-40" y="720" width="80" height="80" as="geometry" />
        </mxCell>
        <mxCell id="ToU6loC46J24oxrMq6Bs-76" style="edgeStyle=orthogonalEdgeStyle;rounded=0;orthogonalLoop=1;jettySize=auto;html=1;exitX=1;exitY=0.5;exitDx=0;exitDy=0;strokeColor=#00FF00;" parent="1" source="ToU6loC46J24oxrMq6Bs-25" target="ToU6loC46J24oxrMq6Bs-27" edge="1">
          <mxGeometry relative="1" as="geometry" />
        </mxCell>
        <mxCell id="ToU6loC46J24oxrMq6Bs-25" value="refers to" style="rhombus;whiteSpace=wrap;html=1;" parent="1" vertex="1">
          <mxGeometry x="-40" y="1005" width="80" height="80" as="geometry" />
        </mxCell>
        <mxCell id="ToU6loC46J24oxrMq6Bs-252" style="edgeStyle=orthogonalEdgeStyle;rounded=0;orthogonalLoop=1;jettySize=auto;html=1;exitX=1;exitY=0.5;exitDx=0;exitDy=0;entryX=0;entryY=0.5;entryDx=0;entryDy=0;strokeColor=#00FF00;" parent="1" source="ToU6loC46J24oxrMq6Bs-27" target="ToU6loC46J24oxrMq6Bs-251" edge="1">
          <mxGeometry relative="1" as="geometry">
            <Array as="points">
              <mxPoint x="960" y="1045" />
              <mxPoint x="960" y="975" />
            </Array>
          </mxGeometry>
        </mxCell>
        <mxCell id="UtE5IbcF4sJG9WHfilwN-42" style="edgeStyle=orthogonalEdgeStyle;rounded=0;orthogonalLoop=1;jettySize=auto;html=1;exitX=1;exitY=0.25;exitDx=0;exitDy=0;strokeColor=#00FF00;entryX=0.5;entryY=1;entryDx=0;entryDy=0;" edge="1" parent="1" source="ToU6loC46J24oxrMq6Bs-27" target="UtE5IbcF4sJG9WHfilwN-23">
          <mxGeometry relative="1" as="geometry">
            <Array as="points">
              <mxPoint x="340" y="880" />
              <mxPoint x="1040" y="880" />
            </Array>
          </mxGeometry>
        </mxCell>
        <mxCell id="ToU6loC46J24oxrMq6Bs-27" value="Product" style="whiteSpace=wrap;html=1;aspect=fixed;" parent="1" vertex="1">
          <mxGeometry x="260" y="1005" width="80" height="80" as="geometry" />
        </mxCell>
        <mxCell id="ToU6loC46J24oxrMq6Bs-34" value="" style="edgeStyle=orthogonalEdgeStyle;rounded=0;orthogonalLoop=1;jettySize=auto;html=1;strokeColor=#0000FF;" parent="1" source="ToU6loC46J24oxrMq6Bs-31" target="ToU6loC46J24oxrMq6Bs-33" edge="1">
          <mxGeometry relative="1" as="geometry" />
        </mxCell>
        <mxCell id="ToU6loC46J24oxrMq6Bs-31" value="places" style="rhombus;whiteSpace=wrap;html=1;" parent="1" vertex="1">
          <mxGeometry x="1180" y="260" width="80" height="80" as="geometry" />
        </mxCell>
        <mxCell id="ToU6loC46J24oxrMq6Bs-39" value="" style="edgeStyle=orthogonalEdgeStyle;rounded=0;orthogonalLoop=1;jettySize=auto;html=1;strokeColor=#FF0000;" parent="1" source="ToU6loC46J24oxrMq6Bs-33" target="ToU6loC46J24oxrMq6Bs-38" edge="1">
          <mxGeometry relative="1" as="geometry" />
        </mxCell>
        <mxCell id="ToU6loC46J24oxrMq6Bs-50" value="" style="edgeStyle=orthogonalEdgeStyle;rounded=0;orthogonalLoop=1;jettySize=auto;html=1;strokeColor=#00FF00;" parent="1" source="ToU6loC46J24oxrMq6Bs-33" target="ToU6loC46J24oxrMq6Bs-49" edge="1">
          <mxGeometry relative="1" as="geometry">
            <Array as="points">
              <mxPoint x="1570" y="1012" />
            </Array>
          </mxGeometry>
        </mxCell>
        <mxCell id="ToU6loC46J24oxrMq6Bs-309" style="edgeStyle=orthogonalEdgeStyle;rounded=0;orthogonalLoop=1;jettySize=auto;html=1;exitX=0.5;exitY=1;exitDx=0;exitDy=0;entryX=0;entryY=0.5;entryDx=0;entryDy=0;strokeColor=#FF0000;" parent="1" source="ToU6loC46J24oxrMq6Bs-33" target="ToU6loC46J24oxrMq6Bs-43" edge="1">
          <mxGeometry relative="1" as="geometry">
            <Array as="points">
              <mxPoint x="1600" y="340" />
              <mxPoint x="1600" y="740" />
            </Array>
          </mxGeometry>
        </mxCell>
        <mxCell id="ToU6loC46J24oxrMq6Bs-33" value="Order" style="whiteSpace=wrap;html=1;aspect=fixed;" parent="1" vertex="1">
          <mxGeometry x="1540" y="260" width="80" height="80" as="geometry" />
        </mxCell>
        <mxCell id="ToU6loC46J24oxrMq6Bs-41" value="" style="edgeStyle=orthogonalEdgeStyle;rounded=0;orthogonalLoop=1;jettySize=auto;html=1;strokeColor=#FF0000;" parent="1" source="ToU6loC46J24oxrMq6Bs-38" target="ToU6loC46J24oxrMq6Bs-40" edge="1">
          <mxGeometry relative="1" as="geometry" />
        </mxCell>
        <mxCell id="ToU6loC46J24oxrMq6Bs-38" value="has" style="rhombus;whiteSpace=wrap;html=1;" parent="1" vertex="1">
          <mxGeometry x="1890" y="260" width="80" height="80" as="geometry" />
        </mxCell>
        <mxCell id="ToU6loC46J24oxrMq6Bs-40" value="Shipment" style="whiteSpace=wrap;html=1;aspect=fixed;" parent="1" vertex="1">
          <mxGeometry x="2080" y="260" width="80" height="80" as="geometry" />
        </mxCell>
        <mxCell id="ToU6loC46J24oxrMq6Bs-220" style="edgeStyle=orthogonalEdgeStyle;rounded=0;orthogonalLoop=1;jettySize=auto;html=1;exitX=1;exitY=0.5;exitDx=0;exitDy=0;entryX=0;entryY=0.5;entryDx=0;entryDy=0;strokeColor=#FF0000;" parent="1" source="ToU6loC46J24oxrMq6Bs-43" target="ToU6loC46J24oxrMq6Bs-45" edge="1">
          <mxGeometry relative="1" as="geometry" />
        </mxCell>
        <mxCell id="ToU6loC46J24oxrMq6Bs-43" value="makes" style="rhombus;whiteSpace=wrap;html=1;" parent="1" vertex="1">
          <mxGeometry x="1890" y="700" width="80" height="80" as="geometry" />
        </mxCell>
        <mxCell id="ToU6loC46J24oxrMq6Bs-45" value="Payment" style="whiteSpace=wrap;html=1;aspect=fixed;" parent="1" vertex="1">
          <mxGeometry x="2080" y="699.93" width="80" height="80" as="geometry" />
        </mxCell>
        <mxCell id="ToU6loC46J24oxrMq6Bs-53" value="" style="edgeStyle=orthogonalEdgeStyle;rounded=0;orthogonalLoop=1;jettySize=auto;html=1;fillColor=#00FF00;strokeColor=#00FF00;" parent="1" source="ToU6loC46J24oxrMq6Bs-49" target="ToU6loC46J24oxrMq6Bs-52" edge="1">
          <mxGeometry relative="1" as="geometry" />
        </mxCell>
        <mxCell id="ToU6loC46J24oxrMq6Bs-49" value="contains" style="rhombus;whiteSpace=wrap;html=1;" parent="1" vertex="1">
          <mxGeometry x="1890" y="972.5" width="80" height="80" as="geometry" />
        </mxCell>
        <mxCell id="ToU6loC46J24oxrMq6Bs-333" style="edgeStyle=orthogonalEdgeStyle;rounded=0;orthogonalLoop=1;jettySize=auto;html=1;exitX=0.5;exitY=1;exitDx=0;exitDy=0;entryX=1;entryY=0.5;entryDx=0;entryDy=0;strokeColor=#00FF00;" parent="1" source="ToU6loC46J24oxrMq6Bs-52" target="ToU6loC46J24oxrMq6Bs-330" edge="1">
          <mxGeometry relative="1" as="geometry" />
        </mxCell>
        <mxCell id="ToU6loC46J24oxrMq6Bs-52" value="Order_Item" style="whiteSpace=wrap;html=1;aspect=fixed;" parent="1" vertex="1">
          <mxGeometry x="2110" y="1035" width="80" height="80" as="geometry" />
        </mxCell>
        <mxCell id="ToU6loC46J24oxrMq6Bs-296" style="edgeStyle=orthogonalEdgeStyle;rounded=0;orthogonalLoop=1;jettySize=auto;html=1;exitX=0;exitY=0.5;exitDx=0;exitDy=0;entryX=1;entryY=0.5;entryDx=0;entryDy=0;strokeColor=#0000FF;" parent="1" source="ToU6loC46J24oxrMq6Bs-55" target="ToU6loC46J24oxrMq6Bs-66" edge="1">
          <mxGeometry relative="1" as="geometry" />
        </mxCell>
        <mxCell id="ToU6loC46J24oxrMq6Bs-55" value="Wishlist" style="whiteSpace=wrap;html=1;aspect=fixed;" parent="1" vertex="1">
          <mxGeometry x="750" y="730" width="80" height="80" as="geometry" />
        </mxCell>
        <mxCell id="ToU6loC46J24oxrMq6Bs-202" style="edgeStyle=orthogonalEdgeStyle;rounded=0;orthogonalLoop=1;jettySize=auto;html=1;exitX=0.5;exitY=1;exitDx=0;exitDy=0;" parent="1" source="ToU6loC46J24oxrMq6Bs-56" target="ToU6loC46J24oxrMq6Bs-55" edge="1">
          <mxGeometry relative="1" as="geometry" />
        </mxCell>
        <mxCell id="ToU6loC46J24oxrMq6Bs-56" value="&lt;div&gt;&lt;b&gt;&lt;u&gt;Wishlist_ID&lt;/u&gt;&lt;/b&gt;&lt;/div&gt;" style="ellipse;whiteSpace=wrap;html=1;" parent="1" vertex="1">
          <mxGeometry x="730" y="670" width="120" height="40" as="geometry" />
        </mxCell>
        <mxCell id="ToU6loC46J24oxrMq6Bs-298" style="edgeStyle=orthogonalEdgeStyle;rounded=0;orthogonalLoop=1;jettySize=auto;html=1;exitX=0;exitY=0.5;exitDx=0;exitDy=0;strokeColor=#FF0000;" parent="1" source="ToU6loC46J24oxrMq6Bs-57" target="ToU6loC46J24oxrMq6Bs-55" edge="1">
          <mxGeometry relative="1" as="geometry" />
        </mxCell>
        <mxCell id="ToU6loC46J24oxrMq6Bs-57" value="has" style="rhombus;whiteSpace=wrap;html=1;" parent="1" vertex="1">
          <mxGeometry x="920" y="730" width="80" height="80" as="geometry" />
        </mxCell>
        <mxCell id="ToU6loC46J24oxrMq6Bs-295" style="edgeStyle=orthogonalEdgeStyle;rounded=0;orthogonalLoop=1;jettySize=auto;html=1;exitX=0;exitY=0.5;exitDx=0;exitDy=0;strokeColor=#00FF00;" parent="1" source="ToU6loC46J24oxrMq6Bs-61" target="ToU6loC46J24oxrMq6Bs-69" edge="1">
          <mxGeometry relative="1" as="geometry" />
        </mxCell>
        <mxCell id="ToU6loC46J24oxrMq6Bs-61" value="Wishlist_Item" style="whiteSpace=wrap;html=1;aspect=fixed;" parent="1" vertex="1">
          <mxGeometry x="430" y="730" width="80" height="80" as="geometry" />
        </mxCell>
        <mxCell id="ToU6loC46J24oxrMq6Bs-201" style="edgeStyle=orthogonalEdgeStyle;rounded=0;orthogonalLoop=1;jettySize=auto;html=1;exitX=0.5;exitY=1;exitDx=0;exitDy=0;" parent="1" source="ToU6loC46J24oxrMq6Bs-62" target="ToU6loC46J24oxrMq6Bs-61" edge="1">
          <mxGeometry relative="1" as="geometry" />
        </mxCell>
        <mxCell id="ToU6loC46J24oxrMq6Bs-62" value="&lt;div&gt;&lt;b&gt;&lt;u&gt;Wishlist_Item_ID&lt;/u&gt;&lt;/b&gt;&lt;/div&gt;" style="ellipse;whiteSpace=wrap;html=1;" parent="1" vertex="1">
          <mxGeometry x="410" y="670" width="120" height="40" as="geometry" />
        </mxCell>
        <mxCell id="ToU6loC46J24oxrMq6Bs-297" style="edgeStyle=orthogonalEdgeStyle;rounded=0;orthogonalLoop=1;jettySize=auto;html=1;entryX=1;entryY=0.5;entryDx=0;entryDy=0;strokeColor=#0000FF;" parent="1" source="ToU6loC46J24oxrMq6Bs-66" target="ToU6loC46J24oxrMq6Bs-61" edge="1">
          <mxGeometry relative="1" as="geometry" />
        </mxCell>
        <mxCell id="ToU6loC46J24oxrMq6Bs-66" value="contains" style="rhombus;whiteSpace=wrap;html=1;" parent="1" vertex="1">
          <mxGeometry x="580" y="730" width="80" height="80" as="geometry" />
        </mxCell>
        <mxCell id="ToU6loC46J24oxrMq6Bs-294" style="edgeStyle=orthogonalEdgeStyle;rounded=0;orthogonalLoop=1;jettySize=auto;html=1;exitX=0.5;exitY=1;exitDx=0;exitDy=0;strokeColor=#00FF00;" parent="1" source="ToU6loC46J24oxrMq6Bs-69" target="ToU6loC46J24oxrMq6Bs-27" edge="1">
          <mxGeometry relative="1" as="geometry" />
        </mxCell>
        <mxCell id="ToU6loC46J24oxrMq6Bs-69" value="refers to" style="rhombus;whiteSpace=wrap;html=1;" parent="1" vertex="1">
          <mxGeometry x="260" y="730" width="80" height="80" as="geometry" />
        </mxCell>
        <mxCell id="ToU6loC46J24oxrMq6Bs-95" style="edgeStyle=orthogonalEdgeStyle;rounded=0;orthogonalLoop=1;jettySize=auto;html=1;exitX=1;exitY=0.5;exitDx=0;exitDy=0;entryX=0;entryY=0.5;entryDx=0;entryDy=0;" parent="1" source="ToU6loC46J24oxrMq6Bs-82" target="ToU6loC46J24oxrMq6Bs-6" edge="1">
          <mxGeometry relative="1" as="geometry" />
        </mxCell>
        <mxCell id="ToU6loC46J24oxrMq6Bs-82" value="&lt;div&gt;&lt;b&gt;&lt;u&gt;User_ID&lt;/u&gt;&lt;/b&gt;&lt;/div&gt;" style="ellipse;whiteSpace=wrap;html=1;" parent="1" vertex="1">
          <mxGeometry x="90" y="127.75" width="90" height="35" as="geometry" />
        </mxCell>
        <mxCell id="ToU6loC46J24oxrMq6Bs-96" style="edgeStyle=orthogonalEdgeStyle;rounded=0;orthogonalLoop=1;jettySize=auto;html=1;exitX=1;exitY=0.5;exitDx=0;exitDy=0;entryX=0;entryY=0.5;entryDx=0;entryDy=0;" parent="1" source="ToU6loC46J24oxrMq6Bs-83" target="ToU6loC46J24oxrMq6Bs-6" edge="1">
          <mxGeometry relative="1" as="geometry" />
        </mxCell>
        <mxCell id="ToU6loC46J24oxrMq6Bs-83" value="&lt;div&gt;email&lt;/div&gt;" style="ellipse;whiteSpace=wrap;html=1;" parent="1" vertex="1">
          <mxGeometry x="90" y="169.75" width="90" height="35" as="geometry" />
        </mxCell>
        <mxCell id="ToU6loC46J24oxrMq6Bs-103" style="edgeStyle=orthogonalEdgeStyle;rounded=0;orthogonalLoop=1;jettySize=auto;html=1;entryX=0;entryY=0.5;entryDx=0;entryDy=0;" parent="1" source="ToU6loC46J24oxrMq6Bs-84" target="ToU6loC46J24oxrMq6Bs-6" edge="1">
          <mxGeometry relative="1" as="geometry" />
        </mxCell>
        <mxCell id="ToU6loC46J24oxrMq6Bs-84" value="password" style="ellipse;whiteSpace=wrap;html=1;" parent="1" vertex="1">
          <mxGeometry x="90" y="212.25" width="90" height="35" as="geometry" />
        </mxCell>
        <mxCell id="ToU6loC46J24oxrMq6Bs-98" style="edgeStyle=orthogonalEdgeStyle;rounded=0;orthogonalLoop=1;jettySize=auto;html=1;entryX=0;entryY=0.5;entryDx=0;entryDy=0;" parent="1" source="ToU6loC46J24oxrMq6Bs-85" target="ToU6loC46J24oxrMq6Bs-6" edge="1">
          <mxGeometry relative="1" as="geometry" />
        </mxCell>
        <mxCell id="ToU6loC46J24oxrMq6Bs-85" value="first_name" style="ellipse;whiteSpace=wrap;html=1;" parent="1" vertex="1">
          <mxGeometry x="90" y="257.25" width="90" height="35" as="geometry" />
        </mxCell>
        <mxCell id="ToU6loC46J24oxrMq6Bs-99" style="edgeStyle=orthogonalEdgeStyle;rounded=0;orthogonalLoop=1;jettySize=auto;html=1;entryX=0;entryY=0.5;entryDx=0;entryDy=0;" parent="1" source="ToU6loC46J24oxrMq6Bs-86" target="ToU6loC46J24oxrMq6Bs-6" edge="1">
          <mxGeometry relative="1" as="geometry" />
        </mxCell>
        <mxCell id="ToU6loC46J24oxrMq6Bs-86" value="last_name" style="ellipse;whiteSpace=wrap;html=1;" parent="1" vertex="1">
          <mxGeometry x="90" y="302.25" width="90" height="35" as="geometry" />
        </mxCell>
        <mxCell id="ToU6loC46J24oxrMq6Bs-100" style="edgeStyle=orthogonalEdgeStyle;rounded=0;orthogonalLoop=1;jettySize=auto;html=1;entryX=0;entryY=0.5;entryDx=0;entryDy=0;" parent="1" source="ToU6loC46J24oxrMq6Bs-87" target="ToU6loC46J24oxrMq6Bs-6" edge="1">
          <mxGeometry relative="1" as="geometry" />
        </mxCell>
        <mxCell id="ToU6loC46J24oxrMq6Bs-87" value="&lt;div&gt;phone_number&lt;/div&gt;" style="ellipse;whiteSpace=wrap;html=1;" parent="1" vertex="1">
          <mxGeometry x="90" y="352.25" width="90" height="35" as="geometry" />
        </mxCell>
        <mxCell id="ToU6loC46J24oxrMq6Bs-101" style="edgeStyle=orthogonalEdgeStyle;rounded=0;orthogonalLoop=1;jettySize=auto;html=1;entryX=0;entryY=0.5;entryDx=0;entryDy=0;" parent="1" source="ToU6loC46J24oxrMq6Bs-89" target="ToU6loC46J24oxrMq6Bs-6" edge="1">
          <mxGeometry relative="1" as="geometry" />
        </mxCell>
        <mxCell id="ToU6loC46J24oxrMq6Bs-89" value="&lt;div&gt;role&lt;/div&gt;" style="ellipse;whiteSpace=wrap;html=1;" parent="1" vertex="1">
          <mxGeometry x="90" y="446" width="90" height="35" as="geometry" />
        </mxCell>
        <mxCell id="ToU6loC46J24oxrMq6Bs-102" style="edgeStyle=orthogonalEdgeStyle;rounded=0;orthogonalLoop=1;jettySize=auto;html=1;entryX=0;entryY=0.5;entryDx=0;entryDy=0;" parent="1" source="ToU6loC46J24oxrMq6Bs-90" target="ToU6loC46J24oxrMq6Bs-6" edge="1">
          <mxGeometry relative="1" as="geometry" />
        </mxCell>
        <mxCell id="ToU6loC46J24oxrMq6Bs-90" value="account_status" style="ellipse;whiteSpace=wrap;html=1;" parent="1" vertex="1">
          <mxGeometry x="90" y="489" width="90" height="35" as="geometry" />
        </mxCell>
        <mxCell id="ToU6loC46J24oxrMq6Bs-116" style="edgeStyle=orthogonalEdgeStyle;rounded=0;orthogonalLoop=1;jettySize=auto;html=1;entryX=0.5;entryY=0;entryDx=0;entryDy=0;" parent="1" source="ToU6loC46J24oxrMq6Bs-91" target="ToU6loC46J24oxrMq6Bs-9" edge="1">
          <mxGeometry relative="1" as="geometry" />
        </mxCell>
        <mxCell id="ToU6loC46J24oxrMq6Bs-91" value="&lt;div&gt;&lt;b&gt;&lt;u&gt;Customer_ID&lt;/u&gt;&lt;/b&gt;&lt;/div&gt;" style="ellipse;whiteSpace=wrap;html=1;" parent="1" vertex="1">
          <mxGeometry x="860" y="185" width="90" height="35" as="geometry" />
        </mxCell>
        <mxCell id="ToU6loC46J24oxrMq6Bs-93" value="" style="ellipse;whiteSpace=wrap;html=1;" parent="1" vertex="1">
          <mxGeometry x="960" y="180" width="100" height="45" as="geometry" />
        </mxCell>
        <mxCell id="ToU6loC46J24oxrMq6Bs-114" style="edgeStyle=orthogonalEdgeStyle;rounded=0;orthogonalLoop=1;jettySize=auto;html=1;" parent="1" source="ToU6loC46J24oxrMq6Bs-107" target="ToU6loC46J24oxrMq6Bs-9" edge="1">
          <mxGeometry relative="1" as="geometry" />
        </mxCell>
        <mxCell id="ToU6loC46J24oxrMq6Bs-107" value="address" style="ellipse;whiteSpace=wrap;html=1;" parent="1" vertex="1">
          <mxGeometry x="965" y="185" width="90" height="35" as="geometry" />
        </mxCell>
        <mxCell id="ToU6loC46J24oxrMq6Bs-131" style="edgeStyle=orthogonalEdgeStyle;rounded=0;orthogonalLoop=1;jettySize=auto;html=1;exitX=0.5;exitY=1;exitDx=0;exitDy=0;entryX=0.5;entryY=0;entryDx=0;entryDy=0;" parent="1" source="ToU6loC46J24oxrMq6Bs-109" target="ToU6loC46J24oxrMq6Bs-93" edge="1">
          <mxGeometry relative="1" as="geometry">
            <Array as="points">
              <mxPoint x="960" y="160" />
              <mxPoint x="1010" y="160" />
            </Array>
          </mxGeometry>
        </mxCell>
        <mxCell id="ToU6loC46J24oxrMq6Bs-109" value="&lt;div&gt;city&lt;/div&gt;" style="ellipse;whiteSpace=wrap;html=1;" parent="1" vertex="1">
          <mxGeometry x="915" y="110" width="90" height="35" as="geometry" />
        </mxCell>
        <mxCell id="ToU6loC46J24oxrMq6Bs-133" style="edgeStyle=orthogonalEdgeStyle;rounded=0;orthogonalLoop=1;jettySize=auto;html=1;exitX=0.5;exitY=1;exitDx=0;exitDy=0;entryX=0.5;entryY=0;entryDx=0;entryDy=0;" parent="1" source="ToU6loC46J24oxrMq6Bs-111" target="ToU6loC46J24oxrMq6Bs-93" edge="1">
          <mxGeometry relative="1" as="geometry">
            <Array as="points">
              <mxPoint x="1060" y="160" />
              <mxPoint x="1010" y="160" />
            </Array>
          </mxGeometry>
        </mxCell>
        <mxCell id="ToU6loC46J24oxrMq6Bs-111" value="zip code" style="ellipse;whiteSpace=wrap;html=1;" parent="1" vertex="1">
          <mxGeometry x="1015" y="110" width="90" height="35" as="geometry" />
        </mxCell>
        <mxCell id="ToU6loC46J24oxrMq6Bs-128" style="edgeStyle=orthogonalEdgeStyle;rounded=0;orthogonalLoop=1;jettySize=auto;html=1;exitX=0.5;exitY=1;exitDx=0;exitDy=0;entryX=0.5;entryY=0;entryDx=0;entryDy=0;" parent="1" source="ToU6loC46J24oxrMq6Bs-113" target="ToU6loC46J24oxrMq6Bs-93" edge="1">
          <mxGeometry relative="1" as="geometry">
            <Array as="points">
              <mxPoint x="1160" y="160" />
              <mxPoint x="1010" y="160" />
            </Array>
          </mxGeometry>
        </mxCell>
        <mxCell id="ToU6loC46J24oxrMq6Bs-113" value="street" style="ellipse;whiteSpace=wrap;html=1;" parent="1" vertex="1">
          <mxGeometry x="1115" y="110" width="90" height="35" as="geometry" />
        </mxCell>
        <mxCell id="ToU6loC46J24oxrMq6Bs-132" style="edgeStyle=orthogonalEdgeStyle;rounded=0;orthogonalLoop=1;jettySize=auto;html=1;exitX=0.5;exitY=1;exitDx=0;exitDy=0;entryX=0.5;entryY=0;entryDx=0;entryDy=0;" parent="1" source="ToU6loC46J24oxrMq6Bs-124" target="ToU6loC46J24oxrMq6Bs-93" edge="1">
          <mxGeometry relative="1" as="geometry">
            <Array as="points">
              <mxPoint x="860" y="160" />
              <mxPoint x="1010" y="160" />
            </Array>
          </mxGeometry>
        </mxCell>
        <mxCell id="ToU6loC46J24oxrMq6Bs-124" value="state" style="ellipse;whiteSpace=wrap;html=1;" parent="1" vertex="1">
          <mxGeometry x="815" y="110" width="90" height="35" as="geometry" />
        </mxCell>
        <mxCell id="ToU6loC46J24oxrMq6Bs-136" style="edgeStyle=orthogonalEdgeStyle;rounded=0;orthogonalLoop=1;jettySize=auto;html=1;entryX=0;entryY=0.5;entryDx=0;entryDy=0;" parent="1" source="ToU6loC46J24oxrMq6Bs-135" target="ToU6loC46J24oxrMq6Bs-6" edge="1">
          <mxGeometry relative="1" as="geometry" />
        </mxCell>
        <mxCell id="ToU6loC46J24oxrMq6Bs-135" value="birthday" style="ellipse;whiteSpace=wrap;html=1;" parent="1" vertex="1">
          <mxGeometry x="90" y="400" width="90" height="35" as="geometry" />
        </mxCell>
        <mxCell id="ToU6loC46J24oxrMq6Bs-140" style="edgeStyle=orthogonalEdgeStyle;rounded=0;orthogonalLoop=1;jettySize=auto;html=1;exitX=1;exitY=0.5;exitDx=0;exitDy=0;" parent="1" source="ToU6loC46J24oxrMq6Bs-139" target="ToU6loC46J24oxrMq6Bs-135" edge="1">
          <mxGeometry relative="1" as="geometry" />
        </mxCell>
        <mxCell id="ToU6loC46J24oxrMq6Bs-139" value="age" style="ellipse;whiteSpace=wrap;html=1;dashed=1;" parent="1" vertex="1">
          <mxGeometry x="-30" y="400" width="90" height="35" as="geometry" />
        </mxCell>
        <mxCell id="ToU6loC46J24oxrMq6Bs-144" style="edgeStyle=orthogonalEdgeStyle;rounded=0;orthogonalLoop=1;jettySize=auto;html=1;exitX=1;exitY=0.5;exitDx=0;exitDy=0;entryX=0;entryY=0.5;entryDx=0;entryDy=0;" parent="1" source="ToU6loC46J24oxrMq6Bs-141" target="ToU6loC46J24oxrMq6Bs-22" edge="1">
          <mxGeometry relative="1" as="geometry" />
        </mxCell>
        <mxCell id="ToU6loC46J24oxrMq6Bs-141" value="&lt;div&gt;&lt;b&gt;&lt;u&gt;Cart_Item_ID&lt;/u&gt;&lt;/b&gt;&lt;/div&gt;" style="ellipse;whiteSpace=wrap;html=1;" parent="1" vertex="1">
          <mxGeometry x="-180" y="720" width="90" height="35" as="geometry" />
        </mxCell>
        <mxCell id="ToU6loC46J24oxrMq6Bs-143" style="edgeStyle=orthogonalEdgeStyle;rounded=0;orthogonalLoop=1;jettySize=auto;html=1;" parent="1" source="ToU6loC46J24oxrMq6Bs-142" target="ToU6loC46J24oxrMq6Bs-22" edge="1">
          <mxGeometry relative="1" as="geometry" />
        </mxCell>
        <mxCell id="ToU6loC46J24oxrMq6Bs-142" value="&lt;div&gt;quantity&lt;/div&gt;" style="ellipse;whiteSpace=wrap;html=1;" parent="1" vertex="1">
          <mxGeometry x="-180" y="765" width="90" height="35" as="geometry" />
        </mxCell>
        <mxCell id="ToU6loC46J24oxrMq6Bs-146" style="edgeStyle=orthogonalEdgeStyle;rounded=0;orthogonalLoop=1;jettySize=auto;html=1;exitX=0;exitY=0.5;exitDx=0;exitDy=0;entryX=1;entryY=0.5;entryDx=0;entryDy=0;" parent="1" source="ToU6loC46J24oxrMq6Bs-145" target="ToU6loC46J24oxrMq6Bs-15" edge="1">
          <mxGeometry relative="1" as="geometry" />
        </mxCell>
        <mxCell id="ToU6loC46J24oxrMq6Bs-145" value="&lt;div&gt;&lt;b&gt;&lt;u&gt;Cart_ID&lt;/u&gt;&lt;/b&gt;&lt;/div&gt;" style="ellipse;whiteSpace=wrap;html=1;" parent="1" vertex="1">
          <mxGeometry x="760" y="542.5" width="90" height="35" as="geometry" />
        </mxCell>
        <mxCell id="ToU6loC46J24oxrMq6Bs-192" style="edgeStyle=orthogonalEdgeStyle;rounded=0;orthogonalLoop=1;jettySize=auto;html=1;exitX=0.5;exitY=0;exitDx=0;exitDy=0;entryX=0.5;entryY=1;entryDx=0;entryDy=0;" parent="1" source="ToU6loC46J24oxrMq6Bs-166" target="ToU6loC46J24oxrMq6Bs-27" edge="1">
          <mxGeometry relative="1" as="geometry">
            <mxPoint x="300" y="1140" as="targetPoint" />
            <Array as="points">
              <mxPoint x="235" y="1160" />
              <mxPoint x="300" y="1160" />
            </Array>
          </mxGeometry>
        </mxCell>
        <mxCell id="ToU6loC46J24oxrMq6Bs-166" value="&lt;div&gt;description&lt;/div&gt;" style="ellipse;whiteSpace=wrap;html=1;" parent="1" vertex="1">
          <mxGeometry x="190" y="1195" width="90" height="35" as="geometry" />
        </mxCell>
        <mxCell id="ToU6loC46J24oxrMq6Bs-194" style="edgeStyle=orthogonalEdgeStyle;rounded=0;orthogonalLoop=1;jettySize=auto;html=1;exitX=0.5;exitY=0;exitDx=0;exitDy=0;entryX=0.5;entryY=1;entryDx=0;entryDy=0;" parent="1" source="ToU6loC46J24oxrMq6Bs-167" target="ToU6loC46J24oxrMq6Bs-27" edge="1">
          <mxGeometry relative="1" as="geometry">
            <mxPoint x="300" y="1140" as="targetPoint" />
            <Array as="points">
              <mxPoint x="335" y="1160" />
              <mxPoint x="300" y="1160" />
            </Array>
          </mxGeometry>
        </mxCell>
        <mxCell id="ToU6loC46J24oxrMq6Bs-167" value="price" style="ellipse;whiteSpace=wrap;html=1;" parent="1" vertex="1">
          <mxGeometry x="290" y="1195" width="90" height="35" as="geometry" />
        </mxCell>
        <mxCell id="ToU6loC46J24oxrMq6Bs-195" style="edgeStyle=orthogonalEdgeStyle;rounded=0;orthogonalLoop=1;jettySize=auto;html=1;exitX=0.5;exitY=0;exitDx=0;exitDy=0;entryX=0.5;entryY=1;entryDx=0;entryDy=0;" parent="1" source="ToU6loC46J24oxrMq6Bs-168" target="ToU6loC46J24oxrMq6Bs-27" edge="1">
          <mxGeometry relative="1" as="geometry">
            <mxPoint x="300" y="1140" as="targetPoint" />
            <Array as="points">
              <mxPoint x="435" y="1160" />
              <mxPoint x="300" y="1160" />
            </Array>
          </mxGeometry>
        </mxCell>
        <mxCell id="ToU6loC46J24oxrMq6Bs-168" value="&lt;div&gt;stock&lt;/div&gt;" style="ellipse;whiteSpace=wrap;html=1;" parent="1" vertex="1">
          <mxGeometry x="390" y="1195" width="90" height="35" as="geometry" />
        </mxCell>
        <mxCell id="ToU6loC46J24oxrMq6Bs-197" style="edgeStyle=orthogonalEdgeStyle;rounded=0;orthogonalLoop=1;jettySize=auto;html=1;exitX=0.5;exitY=0;exitDx=0;exitDy=0;entryX=0.5;entryY=1;entryDx=0;entryDy=0;" parent="1" source="ToU6loC46J24oxrMq6Bs-175" target="ToU6loC46J24oxrMq6Bs-27" edge="1">
          <mxGeometry relative="1" as="geometry">
            <mxPoint x="300" y="1140" as="targetPoint" />
            <Array as="points">
              <mxPoint x="535" y="1160" />
              <mxPoint x="300" y="1160" />
            </Array>
          </mxGeometry>
        </mxCell>
        <mxCell id="ToU6loC46J24oxrMq6Bs-175" value="weight" style="ellipse;whiteSpace=wrap;html=1;" parent="1" vertex="1">
          <mxGeometry x="490" y="1195" width="90" height="35" as="geometry" />
        </mxCell>
        <mxCell id="ToU6loC46J24oxrMq6Bs-198" style="edgeStyle=orthogonalEdgeStyle;rounded=0;orthogonalLoop=1;jettySize=auto;html=1;exitX=0.5;exitY=0;exitDx=0;exitDy=0;entryX=0.5;entryY=1;entryDx=0;entryDy=0;" parent="1" source="ToU6loC46J24oxrMq6Bs-176" target="ToU6loC46J24oxrMq6Bs-27" edge="1">
          <mxGeometry relative="1" as="geometry">
            <mxPoint x="300" y="1140" as="targetPoint" />
            <Array as="points">
              <mxPoint x="635" y="1160" />
              <mxPoint x="300" y="1160" />
            </Array>
          </mxGeometry>
        </mxCell>
        <mxCell id="ToU6loC46J24oxrMq6Bs-176" value="&lt;div&gt;dimensions&lt;/div&gt;" style="ellipse;whiteSpace=wrap;html=1;" parent="1" vertex="1">
          <mxGeometry x="590" y="1195" width="90" height="35" as="geometry" />
        </mxCell>
        <mxCell id="ToU6loC46J24oxrMq6Bs-187" style="edgeStyle=orthogonalEdgeStyle;rounded=0;orthogonalLoop=1;jettySize=auto;html=1;exitX=0.5;exitY=0;exitDx=0;exitDy=0;entryX=0.5;entryY=1;entryDx=0;entryDy=0;" parent="1" source="ToU6loC46J24oxrMq6Bs-181" target="ToU6loC46J24oxrMq6Bs-27" edge="1">
          <mxGeometry relative="1" as="geometry">
            <mxPoint x="300" y="1140" as="targetPoint" />
            <Array as="points">
              <mxPoint x="-65" y="1160" />
              <mxPoint x="300" y="1160" />
            </Array>
          </mxGeometry>
        </mxCell>
        <mxCell id="ToU6loC46J24oxrMq6Bs-181" value="&lt;b&gt;&lt;u&gt;Product_ID&lt;/u&gt;&lt;/b&gt;" style="ellipse;whiteSpace=wrap;html=1;" parent="1" vertex="1">
          <mxGeometry x="-110" y="1195" width="90" height="35" as="geometry" />
        </mxCell>
        <mxCell id="ToU6loC46J24oxrMq6Bs-189" style="edgeStyle=orthogonalEdgeStyle;rounded=0;orthogonalLoop=1;jettySize=auto;html=1;exitX=0.5;exitY=0;exitDx=0;exitDy=0;entryX=0.5;entryY=1;entryDx=0;entryDy=0;" parent="1" source="ToU6loC46J24oxrMq6Bs-182" target="ToU6loC46J24oxrMq6Bs-27" edge="1">
          <mxGeometry relative="1" as="geometry">
            <mxPoint x="300" y="1140" as="targetPoint" />
            <Array as="points">
              <mxPoint x="35" y="1160" />
              <mxPoint x="300" y="1160" />
            </Array>
          </mxGeometry>
        </mxCell>
        <mxCell id="ToU6loC46J24oxrMq6Bs-182" value="SKU" style="ellipse;whiteSpace=wrap;html=1;" parent="1" vertex="1">
          <mxGeometry x="-10" y="1195" width="90" height="35" as="geometry" />
        </mxCell>
        <mxCell id="ToU6loC46J24oxrMq6Bs-190" style="edgeStyle=orthogonalEdgeStyle;rounded=0;orthogonalLoop=1;jettySize=auto;html=1;exitX=0.5;exitY=0;exitDx=0;exitDy=0;entryX=0.5;entryY=1;entryDx=0;entryDy=0;" parent="1" source="ToU6loC46J24oxrMq6Bs-183" target="ToU6loC46J24oxrMq6Bs-27" edge="1">
          <mxGeometry relative="1" as="geometry">
            <mxPoint x="300" y="1140" as="targetPoint" />
            <Array as="points">
              <mxPoint x="135" y="1160" />
              <mxPoint x="300" y="1160" />
            </Array>
          </mxGeometry>
        </mxCell>
        <mxCell id="ToU6loC46J24oxrMq6Bs-183" value="&lt;div&gt;product name&lt;/div&gt;" style="ellipse;whiteSpace=wrap;html=1;" parent="1" vertex="1">
          <mxGeometry x="90" y="1195" width="90" height="35" as="geometry" />
        </mxCell>
        <mxCell id="ToU6loC46J24oxrMq6Bs-216" style="edgeStyle=orthogonalEdgeStyle;rounded=0;orthogonalLoop=1;jettySize=auto;html=1;exitX=0.5;exitY=1;exitDx=0;exitDy=0;entryX=0.5;entryY=0;entryDx=0;entryDy=0;" parent="1" source="ToU6loC46J24oxrMq6Bs-203" target="ToU6loC46J24oxrMq6Bs-33" edge="1">
          <mxGeometry relative="1" as="geometry" />
        </mxCell>
        <mxCell id="ToU6loC46J24oxrMq6Bs-203" value="status" style="ellipse;whiteSpace=wrap;html=1;" parent="1" vertex="1">
          <mxGeometry x="1580" y="185" width="90" height="35" as="geometry" />
        </mxCell>
        <mxCell id="ToU6loC46J24oxrMq6Bs-218" style="edgeStyle=orthogonalEdgeStyle;rounded=0;orthogonalLoop=1;jettySize=auto;html=1;exitX=0.5;exitY=1;exitDx=0;exitDy=0;entryX=0.5;entryY=0;entryDx=0;entryDy=0;" parent="1" source="ToU6loC46J24oxrMq6Bs-204" target="ToU6loC46J24oxrMq6Bs-33" edge="1">
          <mxGeometry relative="1" as="geometry" />
        </mxCell>
        <mxCell id="ToU6loC46J24oxrMq6Bs-204" value="&lt;div&gt;shipping_address&lt;/div&gt;" style="ellipse;whiteSpace=wrap;html=1;" parent="1" vertex="1">
          <mxGeometry x="1680" y="185" width="100" height="35" as="geometry" />
        </mxCell>
        <mxCell id="ToU6loC46J24oxrMq6Bs-219" style="edgeStyle=orthogonalEdgeStyle;rounded=0;orthogonalLoop=1;jettySize=auto;html=1;exitX=0.5;exitY=1;exitDx=0;exitDy=0;entryX=0.5;entryY=0;entryDx=0;entryDy=0;" parent="1" source="ToU6loC46J24oxrMq6Bs-205" target="ToU6loC46J24oxrMq6Bs-33" edge="1">
          <mxGeometry relative="1" as="geometry" />
        </mxCell>
        <mxCell id="ToU6loC46J24oxrMq6Bs-205" value="billing_address" style="ellipse;whiteSpace=wrap;html=1;" parent="1" vertex="1">
          <mxGeometry x="1790" y="185" width="90" height="35" as="geometry" />
        </mxCell>
        <mxCell id="ToU6loC46J24oxrMq6Bs-214" style="edgeStyle=orthogonalEdgeStyle;rounded=0;orthogonalLoop=1;jettySize=auto;html=1;exitX=0.5;exitY=1;exitDx=0;exitDy=0;entryX=0.5;entryY=0;entryDx=0;entryDy=0;" parent="1" source="ToU6loC46J24oxrMq6Bs-209" target="ToU6loC46J24oxrMq6Bs-33" edge="1">
          <mxGeometry relative="1" as="geometry" />
        </mxCell>
        <mxCell id="ToU6loC46J24oxrMq6Bs-209" value="&lt;b&gt;&lt;u&gt;Order_ID&lt;/u&gt;&lt;/b&gt;" style="ellipse;whiteSpace=wrap;html=1;" parent="1" vertex="1">
          <mxGeometry x="1280" y="185" width="90" height="35" as="geometry" />
        </mxCell>
        <mxCell id="ToU6loC46J24oxrMq6Bs-215" style="edgeStyle=orthogonalEdgeStyle;rounded=0;orthogonalLoop=1;jettySize=auto;html=1;exitX=0.5;exitY=1;exitDx=0;exitDy=0;entryX=0.5;entryY=0;entryDx=0;entryDy=0;" parent="1" source="ToU6loC46J24oxrMq6Bs-210" target="ToU6loC46J24oxrMq6Bs-33" edge="1">
          <mxGeometry relative="1" as="geometry" />
        </mxCell>
        <mxCell id="ToU6loC46J24oxrMq6Bs-210" value="&lt;div&gt;order_date&lt;/div&gt;" style="ellipse;whiteSpace=wrap;html=1;" parent="1" vertex="1">
          <mxGeometry x="1380" y="185" width="90" height="35" as="geometry" />
        </mxCell>
        <mxCell id="ToU6loC46J24oxrMq6Bs-217" style="edgeStyle=orthogonalEdgeStyle;rounded=0;orthogonalLoop=1;jettySize=auto;html=1;exitX=0.5;exitY=1;exitDx=0;exitDy=0;" parent="1" source="ToU6loC46J24oxrMq6Bs-211" edge="1">
          <mxGeometry relative="1" as="geometry">
            <mxPoint x="1580.000000000001" y="260" as="targetPoint" />
          </mxGeometry>
        </mxCell>
        <mxCell id="ToU6loC46J24oxrMq6Bs-211" value="total_price" style="ellipse;whiteSpace=wrap;html=1;" parent="1" vertex="1">
          <mxGeometry x="1480" y="185" width="90" height="35" as="geometry" />
        </mxCell>
        <mxCell id="ToU6loC46J24oxrMq6Bs-244" style="edgeStyle=orthogonalEdgeStyle;rounded=0;orthogonalLoop=1;jettySize=auto;html=1;exitX=0;exitY=0.5;exitDx=0;exitDy=0;entryX=1;entryY=0.5;entryDx=0;entryDy=0;" parent="1" source="ToU6loC46J24oxrMq6Bs-221" target="ToU6loC46J24oxrMq6Bs-40" edge="1">
          <mxGeometry relative="1" as="geometry" />
        </mxCell>
        <mxCell id="ToU6loC46J24oxrMq6Bs-221" value="&lt;b&gt;&lt;u&gt;Shipment_ID&lt;/u&gt;&lt;/b&gt;" style="ellipse;whiteSpace=wrap;html=1;" parent="1" vertex="1">
          <mxGeometry x="2210" y="195.25" width="90" height="35" as="geometry" />
        </mxCell>
        <mxCell id="ToU6loC46J24oxrMq6Bs-246" style="edgeStyle=orthogonalEdgeStyle;rounded=0;orthogonalLoop=1;jettySize=auto;html=1;exitX=0;exitY=0.5;exitDx=0;exitDy=0;entryX=1;entryY=0.5;entryDx=0;entryDy=0;" parent="1" source="ToU6loC46J24oxrMq6Bs-222" target="ToU6loC46J24oxrMq6Bs-40" edge="1">
          <mxGeometry relative="1" as="geometry" />
        </mxCell>
        <mxCell id="ToU6loC46J24oxrMq6Bs-222" value="shipment_date" style="ellipse;whiteSpace=wrap;html=1;" parent="1" vertex="1">
          <mxGeometry x="2210" y="237.25" width="90" height="35" as="geometry" />
        </mxCell>
        <mxCell id="ToU6loC46J24oxrMq6Bs-247" style="edgeStyle=orthogonalEdgeStyle;rounded=0;orthogonalLoop=1;jettySize=auto;html=1;exitX=0;exitY=0.5;exitDx=0;exitDy=0;entryX=1;entryY=0.5;entryDx=0;entryDy=0;" parent="1" source="ToU6loC46J24oxrMq6Bs-223" target="ToU6loC46J24oxrMq6Bs-40" edge="1">
          <mxGeometry relative="1" as="geometry" />
        </mxCell>
        <mxCell id="ToU6loC46J24oxrMq6Bs-223" value="carrier" style="ellipse;whiteSpace=wrap;html=1;" parent="1" vertex="1">
          <mxGeometry x="2210" y="282.5" width="90" height="35" as="geometry" />
        </mxCell>
        <mxCell id="ToU6loC46J24oxrMq6Bs-248" style="edgeStyle=orthogonalEdgeStyle;rounded=0;orthogonalLoop=1;jettySize=auto;html=1;exitX=0;exitY=0.5;exitDx=0;exitDy=0;entryX=1;entryY=0.5;entryDx=0;entryDy=0;" parent="1" source="ToU6loC46J24oxrMq6Bs-224" target="ToU6loC46J24oxrMq6Bs-40" edge="1">
          <mxGeometry relative="1" as="geometry" />
        </mxCell>
        <mxCell id="ToU6loC46J24oxrMq6Bs-224" value="tracking_number" style="ellipse;whiteSpace=wrap;html=1;" parent="1" vertex="1">
          <mxGeometry x="2210" y="324.75" width="100" height="35" as="geometry" />
        </mxCell>
        <mxCell id="ToU6loC46J24oxrMq6Bs-250" style="edgeStyle=orthogonalEdgeStyle;rounded=0;orthogonalLoop=1;jettySize=auto;html=1;exitX=0;exitY=0.5;exitDx=0;exitDy=0;entryX=1;entryY=0.5;entryDx=0;entryDy=0;" parent="1" source="ToU6loC46J24oxrMq6Bs-227" target="ToU6loC46J24oxrMq6Bs-40" edge="1">
          <mxGeometry relative="1" as="geometry" />
        </mxCell>
        <mxCell id="ToU6loC46J24oxrMq6Bs-227" value="" style="ellipse;whiteSpace=wrap;html=1;" parent="1" vertex="1">
          <mxGeometry x="2210" y="380" width="100" height="45" as="geometry" />
        </mxCell>
        <mxCell id="ToU6loC46J24oxrMq6Bs-228" value="address" style="ellipse;whiteSpace=wrap;html=1;" parent="1" vertex="1">
          <mxGeometry x="2215" y="385" width="90" height="35" as="geometry" />
        </mxCell>
        <mxCell id="ToU6loC46J24oxrMq6Bs-229" style="edgeStyle=orthogonalEdgeStyle;rounded=0;orthogonalLoop=1;jettySize=auto;html=1;exitX=0;exitY=0.5;exitDx=0;exitDy=0;entryX=1;entryY=0.5;entryDx=0;entryDy=0;" parent="1" source="ToU6loC46J24oxrMq6Bs-230" target="ToU6loC46J24oxrMq6Bs-227" edge="1">
          <mxGeometry relative="1" as="geometry">
            <Array as="points">
              <mxPoint x="2410" y="384" />
              <mxPoint x="2410" y="402" />
            </Array>
          </mxGeometry>
        </mxCell>
        <mxCell id="ToU6loC46J24oxrMq6Bs-230" value="&lt;div&gt;city&lt;/div&gt;" style="ellipse;whiteSpace=wrap;html=1;" parent="1" vertex="1">
          <mxGeometry x="2460" y="366" width="90" height="35" as="geometry" />
        </mxCell>
        <mxCell id="ToU6loC46J24oxrMq6Bs-231" style="edgeStyle=orthogonalEdgeStyle;rounded=0;orthogonalLoop=1;jettySize=auto;html=1;exitX=0;exitY=0.5;exitDx=0;exitDy=0;entryX=1;entryY=0.5;entryDx=0;entryDy=0;" parent="1" source="ToU6loC46J24oxrMq6Bs-232" target="ToU6loC46J24oxrMq6Bs-227" edge="1">
          <mxGeometry relative="1" as="geometry">
            <Array as="points">
              <mxPoint x="2410" y="424" />
              <mxPoint x="2410" y="402" />
            </Array>
          </mxGeometry>
        </mxCell>
        <mxCell id="ToU6loC46J24oxrMq6Bs-232" value="zip code" style="ellipse;whiteSpace=wrap;html=1;" parent="1" vertex="1">
          <mxGeometry x="2460" y="406" width="90" height="35" as="geometry" />
        </mxCell>
        <mxCell id="ToU6loC46J24oxrMq6Bs-233" style="edgeStyle=orthogonalEdgeStyle;rounded=0;orthogonalLoop=1;jettySize=auto;html=1;exitX=0;exitY=0.5;exitDx=0;exitDy=0;entryX=1;entryY=0.5;entryDx=0;entryDy=0;" parent="1" source="ToU6loC46J24oxrMq6Bs-234" target="ToU6loC46J24oxrMq6Bs-227" edge="1">
          <mxGeometry relative="1" as="geometry">
            <Array as="points">
              <mxPoint x="2410" y="464" />
              <mxPoint x="2410" y="402" />
            </Array>
          </mxGeometry>
        </mxCell>
        <mxCell id="ToU6loC46J24oxrMq6Bs-234" value="street" style="ellipse;whiteSpace=wrap;html=1;" parent="1" vertex="1">
          <mxGeometry x="2460" y="446" width="90" height="35" as="geometry" />
        </mxCell>
        <mxCell id="ToU6loC46J24oxrMq6Bs-235" style="edgeStyle=orthogonalEdgeStyle;rounded=0;orthogonalLoop=1;jettySize=auto;html=1;exitX=0;exitY=0.5;exitDx=0;exitDy=0;entryX=1;entryY=0.5;entryDx=0;entryDy=0;" parent="1" source="ToU6loC46J24oxrMq6Bs-236" target="ToU6loC46J24oxrMq6Bs-227" edge="1">
          <mxGeometry relative="1" as="geometry">
            <Array as="points">
              <mxPoint x="2410" y="344" />
              <mxPoint x="2410" y="402" />
            </Array>
          </mxGeometry>
        </mxCell>
        <mxCell id="ToU6loC46J24oxrMq6Bs-236" value="state" style="ellipse;whiteSpace=wrap;html=1;" parent="1" vertex="1">
          <mxGeometry x="2460" y="326" width="90" height="35" as="geometry" />
        </mxCell>
        <mxCell id="ToU6loC46J24oxrMq6Bs-257" style="edgeStyle=orthogonalEdgeStyle;rounded=0;orthogonalLoop=1;jettySize=auto;html=1;exitX=1;exitY=0.5;exitDx=0;exitDy=0;entryX=0;entryY=0.5;entryDx=0;entryDy=0;strokeColor=#00FF00;" parent="1" source="ToU6loC46J24oxrMq6Bs-251" target="ToU6loC46J24oxrMq6Bs-256" edge="1">
          <mxGeometry relative="1" as="geometry">
            <mxPoint x="1160" y="974.94" as="sourcePoint" />
          </mxGeometry>
        </mxCell>
        <mxCell id="ToU6loC46J24oxrMq6Bs-251" value="belongs to" style="rhombus;whiteSpace=wrap;html=1;" parent="1" vertex="1">
          <mxGeometry x="1035" y="934.94" width="80" height="80" as="geometry" />
        </mxCell>
        <mxCell id="ToU6loC46J24oxrMq6Bs-293" style="edgeStyle=orthogonalEdgeStyle;rounded=0;orthogonalLoop=1;jettySize=auto;html=1;exitX=0.5;exitY=1;exitDx=0;exitDy=0;entryX=0.5;entryY=1;entryDx=0;entryDy=0;strokeColor=#0000FF;" parent="1" source="ToU6loC46J24oxrMq6Bs-256" target="ToU6loC46J24oxrMq6Bs-274" edge="1">
          <mxGeometry relative="1" as="geometry" />
        </mxCell>
        <mxCell id="ToU6loC46J24oxrMq6Bs-256" value="Category" style="whiteSpace=wrap;html=1;aspect=fixed;" parent="1" vertex="1">
          <mxGeometry x="1310" y="934.94" width="80" height="80" as="geometry" />
        </mxCell>
        <mxCell id="ToU6loC46J24oxrMq6Bs-266" style="edgeStyle=orthogonalEdgeStyle;rounded=0;orthogonalLoop=1;jettySize=auto;html=1;exitX=0.5;exitY=1;exitDx=0;exitDy=0;entryX=0.5;entryY=0;entryDx=0;entryDy=0;" parent="1" source="ToU6loC46J24oxrMq6Bs-267" edge="1">
          <mxGeometry relative="1" as="geometry">
            <mxPoint x="1350" y="934.94" as="targetPoint" />
            <Array as="points">
              <mxPoint x="1300" y="914.94" />
              <mxPoint x="1350" y="914.94" />
            </Array>
          </mxGeometry>
        </mxCell>
        <mxCell id="ToU6loC46J24oxrMq6Bs-267" value="&lt;div&gt;name&lt;/div&gt;" style="ellipse;whiteSpace=wrap;html=1;" parent="1" vertex="1">
          <mxGeometry x="1255" y="864.94" width="90" height="35" as="geometry" />
        </mxCell>
        <mxCell id="ToU6loC46J24oxrMq6Bs-268" style="edgeStyle=orthogonalEdgeStyle;rounded=0;orthogonalLoop=1;jettySize=auto;html=1;exitX=0.5;exitY=1;exitDx=0;exitDy=0;entryX=0.5;entryY=0;entryDx=0;entryDy=0;" parent="1" source="ToU6loC46J24oxrMq6Bs-269" edge="1">
          <mxGeometry relative="1" as="geometry">
            <mxPoint x="1350" y="934.94" as="targetPoint" />
            <Array as="points">
              <mxPoint x="1400" y="914.94" />
              <mxPoint x="1350" y="914.94" />
            </Array>
          </mxGeometry>
        </mxCell>
        <mxCell id="ToU6loC46J24oxrMq6Bs-269" value="description" style="ellipse;whiteSpace=wrap;html=1;" parent="1" vertex="1">
          <mxGeometry x="1355" y="864.94" width="90" height="35" as="geometry" />
        </mxCell>
        <mxCell id="ToU6loC46J24oxrMq6Bs-272" style="edgeStyle=orthogonalEdgeStyle;rounded=0;orthogonalLoop=1;jettySize=auto;html=1;exitX=0.5;exitY=1;exitDx=0;exitDy=0;entryX=0.5;entryY=0;entryDx=0;entryDy=0;" parent="1" source="ToU6loC46J24oxrMq6Bs-273" edge="1">
          <mxGeometry relative="1" as="geometry">
            <mxPoint x="1350" y="934.94" as="targetPoint" />
            <Array as="points">
              <mxPoint x="1200" y="914.94" />
              <mxPoint x="1350" y="914.94" />
            </Array>
          </mxGeometry>
        </mxCell>
        <mxCell id="ToU6loC46J24oxrMq6Bs-273" value="&lt;div&gt;&lt;b&gt;&lt;u&gt;Category_ID&lt;/u&gt;&lt;/b&gt;&lt;/div&gt;" style="ellipse;whiteSpace=wrap;html=1;" parent="1" vertex="1">
          <mxGeometry x="1155" y="864.94" width="90" height="35" as="geometry" />
        </mxCell>
        <mxCell id="ToU6loC46J24oxrMq6Bs-276" style="edgeStyle=orthogonalEdgeStyle;rounded=0;orthogonalLoop=1;jettySize=auto;html=1;exitX=0;exitY=0.5;exitDx=0;exitDy=0;entryX=1;entryY=0.5;entryDx=0;entryDy=0;strokeColor=#0000FF;" parent="1" source="ToU6loC46J24oxrMq6Bs-274" target="ToU6loC46J24oxrMq6Bs-256" edge="1">
          <mxGeometry relative="1" as="geometry" />
        </mxCell>
        <mxCell id="ToU6loC46J24oxrMq6Bs-274" value="Sub &lt;br&gt;category&lt;br&gt; of" style="rhombus;whiteSpace=wrap;html=1;" parent="1" vertex="1">
          <mxGeometry x="1460" y="934.94" width="80" height="80" as="geometry" />
        </mxCell>
        <mxCell id="ToU6loC46J24oxrMq6Bs-277" style="edgeStyle=orthogonalEdgeStyle;rounded=0;orthogonalLoop=1;jettySize=auto;html=1;exitX=0;exitY=0.5;exitDx=0;exitDy=0;entryX=1;entryY=0.5;entryDx=0;entryDy=0;" parent="1" source="ToU6loC46J24oxrMq6Bs-278" target="ToU6loC46J24oxrMq6Bs-45" edge="1">
          <mxGeometry relative="1" as="geometry">
            <mxPoint x="2200" y="739.81" as="targetPoint" />
          </mxGeometry>
        </mxCell>
        <mxCell id="ToU6loC46J24oxrMq6Bs-278" value="&lt;b&gt;&lt;u&gt;Payment_ID&lt;/u&gt;&lt;/b&gt;" style="ellipse;whiteSpace=wrap;html=1;" parent="1" vertex="1">
          <mxGeometry x="2250" y="635.06" width="110" height="35" as="geometry" />
        </mxCell>
        <mxCell id="ToU6loC46J24oxrMq6Bs-279" style="edgeStyle=orthogonalEdgeStyle;rounded=0;orthogonalLoop=1;jettySize=auto;html=1;exitX=0;exitY=0.5;exitDx=0;exitDy=0;entryX=1;entryY=0.5;entryDx=0;entryDy=0;" parent="1" source="ToU6loC46J24oxrMq6Bs-280" target="ToU6loC46J24oxrMq6Bs-45" edge="1">
          <mxGeometry relative="1" as="geometry">
            <mxPoint x="2200" y="739.81" as="targetPoint" />
          </mxGeometry>
        </mxCell>
        <mxCell id="ToU6loC46J24oxrMq6Bs-280" value="&lt;div&gt;payment_date&lt;/div&gt;" style="ellipse;whiteSpace=wrap;html=1;" parent="1" vertex="1">
          <mxGeometry x="2250" y="677.06" width="110" height="35" as="geometry" />
        </mxCell>
        <mxCell id="ToU6loC46J24oxrMq6Bs-281" style="edgeStyle=orthogonalEdgeStyle;rounded=0;orthogonalLoop=1;jettySize=auto;html=1;exitX=0;exitY=0.5;exitDx=0;exitDy=0;entryX=1;entryY=0.5;entryDx=0;entryDy=0;" parent="1" source="ToU6loC46J24oxrMq6Bs-282" target="ToU6loC46J24oxrMq6Bs-45" edge="1">
          <mxGeometry relative="1" as="geometry">
            <mxPoint x="2200" y="739.81" as="targetPoint" />
          </mxGeometry>
        </mxCell>
        <mxCell id="ToU6loC46J24oxrMq6Bs-282" value="payment_method" style="ellipse;whiteSpace=wrap;html=1;" parent="1" vertex="1">
          <mxGeometry x="2250" y="722.31" width="110" height="35" as="geometry" />
        </mxCell>
        <mxCell id="ToU6loC46J24oxrMq6Bs-283" style="edgeStyle=orthogonalEdgeStyle;rounded=0;orthogonalLoop=1;jettySize=auto;html=1;exitX=0;exitY=0.5;exitDx=0;exitDy=0;entryX=1;entryY=0.5;entryDx=0;entryDy=0;" parent="1" target="ToU6loC46J24oxrMq6Bs-45" edge="1">
          <mxGeometry relative="1" as="geometry">
            <mxPoint x="2200" y="739.81" as="targetPoint" />
            <mxPoint x="2250.0000000001" y="782.0600000000001" as="sourcePoint" />
          </mxGeometry>
        </mxCell>
        <mxCell id="ToU6loC46J24oxrMq6Bs-292" style="edgeStyle=orthogonalEdgeStyle;rounded=0;orthogonalLoop=1;jettySize=auto;html=1;exitX=0;exitY=0.5;exitDx=0;exitDy=0;entryX=1;entryY=0.5;entryDx=0;entryDy=0;" parent="1" source="ToU6loC46J24oxrMq6Bs-288" target="ToU6loC46J24oxrMq6Bs-45" edge="1">
          <mxGeometry relative="1" as="geometry" />
        </mxCell>
        <mxCell id="ToU6loC46J24oxrMq6Bs-288" value="transaction_id" style="ellipse;whiteSpace=wrap;html=1;" parent="1" vertex="1">
          <mxGeometry x="2250" y="809.93" width="110" height="35" as="geometry" />
        </mxCell>
        <mxCell id="ToU6loC46J24oxrMq6Bs-290" value="&lt;div&gt;amount&lt;/div&gt;" style="ellipse;whiteSpace=wrap;html=1;" parent="1" vertex="1">
          <mxGeometry x="2250" y="764.93" width="110" height="35" as="geometry" />
        </mxCell>
        <mxCell id="ToU6loC46J24oxrMq6Bs-307" style="edgeStyle=orthogonalEdgeStyle;rounded=0;orthogonalLoop=1;jettySize=auto;html=1;exitX=0;exitY=0.5;exitDx=0;exitDy=0;" parent="1" source="ToU6loC46J24oxrMq6Bs-300" edge="1">
          <mxGeometry relative="1" as="geometry">
            <mxPoint x="2190" y="1074.6956521739132" as="targetPoint" />
          </mxGeometry>
        </mxCell>
        <mxCell id="ToU6loC46J24oxrMq6Bs-300" value="quantity" style="ellipse;whiteSpace=wrap;html=1;" parent="1" vertex="1">
          <mxGeometry x="2255" y="1057.5" width="90" height="35" as="geometry" />
        </mxCell>
        <mxCell id="ToU6loC46J24oxrMq6Bs-306" style="edgeStyle=orthogonalEdgeStyle;rounded=0;orthogonalLoop=1;jettySize=auto;html=1;exitX=0;exitY=0.5;exitDx=0;exitDy=0;entryX=1;entryY=0.5;entryDx=0;entryDy=0;" parent="1" source="ToU6loC46J24oxrMq6Bs-301" target="ToU6loC46J24oxrMq6Bs-52" edge="1">
          <mxGeometry relative="1" as="geometry" />
        </mxCell>
        <mxCell id="ToU6loC46J24oxrMq6Bs-301" value="price" style="ellipse;whiteSpace=wrap;html=1;" parent="1" vertex="1">
          <mxGeometry x="2255" y="1097.5" width="90" height="35" as="geometry" />
        </mxCell>
        <mxCell id="ToU6loC46J24oxrMq6Bs-308" style="edgeStyle=orthogonalEdgeStyle;rounded=0;orthogonalLoop=1;jettySize=auto;html=1;exitX=0;exitY=0.5;exitDx=0;exitDy=0;entryX=1;entryY=0.5;entryDx=0;entryDy=0;" parent="1" source="ToU6loC46J24oxrMq6Bs-303" target="ToU6loC46J24oxrMq6Bs-52" edge="1">
          <mxGeometry relative="1" as="geometry" />
        </mxCell>
        <mxCell id="ToU6loC46J24oxrMq6Bs-303" value="&lt;b&gt;&lt;u&gt;Order_Item_ID&lt;/u&gt;&lt;/b&gt;" style="ellipse;whiteSpace=wrap;html=1;" parent="1" vertex="1">
          <mxGeometry x="2255" y="1017.5" width="90" height="35" as="geometry" />
        </mxCell>
        <mxCell id="ToU6loC46J24oxrMq6Bs-312" value="&lt;b&gt;1:1&lt;/b&gt;" style="text;html=1;align=center;verticalAlign=middle;resizable=0;points=[];autosize=1;strokeColor=none;fillColor=none;" parent="1" vertex="1">
          <mxGeometry x="680" y="376" width="40" height="30" as="geometry" />
        </mxCell>
        <mxCell id="ToU6loC46J24oxrMq6Bs-313" value="&lt;b&gt;1:1&lt;/b&gt;" style="text;html=1;align=center;verticalAlign=middle;resizable=0;points=[];autosize=1;strokeColor=none;fillColor=none;" parent="1" vertex="1">
          <mxGeometry x="960" y="524" width="40" height="30" as="geometry" />
        </mxCell>
        <mxCell id="ToU6loC46J24oxrMq6Bs-315" value="&lt;b&gt;1:M&lt;/b&gt;" style="text;html=1;align=center;verticalAlign=middle;resizable=0;points=[];autosize=1;strokeColor=none;fillColor=none;" parent="1" vertex="1">
          <mxGeometry x="1195" y="227.25" width="40" height="30" as="geometry" />
        </mxCell>
        <mxCell id="ToU6loC46J24oxrMq6Bs-316" value="&lt;b&gt;1:1&lt;/b&gt;" style="text;html=1;align=center;verticalAlign=middle;resizable=0;points=[];autosize=1;strokeColor=none;fillColor=none;" parent="1" vertex="1">
          <mxGeometry x="580" y="252.5" width="40" height="30" as="geometry" />
        </mxCell>
        <mxCell id="ToU6loC46J24oxrMq6Bs-317" value="&lt;b&gt;1:M&lt;/b&gt;" style="text;html=1;align=center;verticalAlign=middle;resizable=0;points=[];autosize=1;strokeColor=none;fillColor=none;" parent="1" vertex="1">
          <mxGeometry x="230" y="577.5" width="40" height="30" as="geometry" />
        </mxCell>
        <mxCell id="ToU6loC46J24oxrMq6Bs-318" value="&lt;b&gt;1:M&lt;/b&gt;" style="text;html=1;align=center;verticalAlign=middle;resizable=0;points=[];autosize=1;strokeColor=none;fillColor=none;" parent="1" vertex="1">
          <mxGeometry x="600" y="699.93" width="40" height="30" as="geometry" />
        </mxCell>
        <mxCell id="ToU6loC46J24oxrMq6Bs-319" value="&lt;b&gt;M:1&lt;/b&gt;" style="text;html=1;align=center;verticalAlign=middle;resizable=0;points=[];autosize=1;strokeColor=none;fillColor=none;" parent="1" vertex="1">
          <mxGeometry x="15" y="997.5" width="40" height="30" as="geometry" />
        </mxCell>
        <mxCell id="ToU6loC46J24oxrMq6Bs-320" value="&lt;b&gt;M:1&lt;/b&gt;" style="text;html=1;align=center;verticalAlign=middle;resizable=0;points=[];autosize=1;strokeColor=none;fillColor=none;" parent="1" vertex="1">
          <mxGeometry x="315" y="790" width="40" height="30" as="geometry" />
        </mxCell>
        <mxCell id="ToU6loC46J24oxrMq6Bs-322" value="&lt;b&gt;M:1&lt;/b&gt;" style="text;html=1;align=center;verticalAlign=middle;resizable=0;points=[];autosize=1;strokeColor=none;fillColor=none;" parent="1" vertex="1">
          <mxGeometry x="1090" y="992.44" width="40" height="30" as="geometry" />
        </mxCell>
        <mxCell id="ToU6loC46J24oxrMq6Bs-323" value="&lt;b&gt;1:1&lt;/b&gt;" style="text;html=1;align=center;verticalAlign=middle;resizable=0;points=[];autosize=1;strokeColor=none;fillColor=none;" parent="1" vertex="1">
          <mxGeometry x="1870" y="692.31" width="40" height="30" as="geometry" />
        </mxCell>
        <mxCell id="ToU6loC46J24oxrMq6Bs-324" value="&lt;b&gt;1:1&lt;/b&gt;" style="text;html=1;align=center;verticalAlign=middle;resizable=0;points=[];autosize=1;strokeColor=none;fillColor=none;" parent="1" vertex="1">
          <mxGeometry x="1870" y="260" width="40" height="30" as="geometry" />
        </mxCell>
        <mxCell id="ToU6loC46J24oxrMq6Bs-325" value="ISA" style="triangle;whiteSpace=wrap;html=1;" parent="1" vertex="1">
          <mxGeometry x="560" y="260" width="60" height="80" as="geometry" />
        </mxCell>
        <mxCell id="ToU6loC46J24oxrMq6Bs-326" value="&lt;b&gt;M:1&lt;/b&gt;" style="text;html=1;align=center;verticalAlign=middle;resizable=0;points=[];autosize=1;strokeColor=none;fillColor=none;" parent="1" vertex="1">
          <mxGeometry x="1950" y="965" width="40" height="30" as="geometry" />
        </mxCell>
        <mxCell id="ToU6loC46J24oxrMq6Bs-332" style="edgeStyle=orthogonalEdgeStyle;rounded=0;orthogonalLoop=1;jettySize=auto;html=1;exitX=0;exitY=0.5;exitDx=0;exitDy=0;entryX=1;entryY=0.75;entryDx=0;entryDy=0;strokeColor=#00FF00;" parent="1" source="ToU6loC46J24oxrMq6Bs-330" target="ToU6loC46J24oxrMq6Bs-27" edge="1">
          <mxGeometry relative="1" as="geometry">
            <Array as="points">
              <mxPoint x="960" y="1155" />
              <mxPoint x="960" y="1080" />
              <mxPoint x="340" y="1080" />
            </Array>
          </mxGeometry>
        </mxCell>
        <mxCell id="ToU6loC46J24oxrMq6Bs-330" value="contains" style="rhombus;whiteSpace=wrap;html=1;" parent="1" vertex="1">
          <mxGeometry x="1890" y="1115" width="80" height="80" as="geometry" />
        </mxCell>
        <mxCell id="ToU6loC46J24oxrMq6Bs-334" value="&lt;b&gt;M:1&lt;/b&gt;" style="text;html=1;align=center;verticalAlign=middle;resizable=0;points=[];autosize=1;strokeColor=none;fillColor=none;" parent="1" vertex="1">
          <mxGeometry x="1870" y="1115" width="40" height="30" as="geometry" />
        </mxCell>
        <mxCell id="ToU6loC46J24oxrMq6Bs-337" value="&lt;b&gt;1:M&lt;/b&gt;" style="text;html=1;align=center;verticalAlign=middle;resizable=0;points=[];autosize=1;strokeColor=none;fillColor=none;" parent="1" vertex="1">
          <mxGeometry x="1445" y="984.94" width="40" height="30" as="geometry" />
        </mxCell>
        <mxCell id="UtE5IbcF4sJG9WHfilwN-15" style="edgeStyle=orthogonalEdgeStyle;rounded=0;orthogonalLoop=1;jettySize=auto;html=1;exitX=0.5;exitY=1;exitDx=0;exitDy=0;entryX=0.5;entryY=1;entryDx=0;entryDy=0;strokeColor=#0000FF;" edge="1" parent="1" source="UtE5IbcF4sJG9WHfilwN-16" target="UtE5IbcF4sJG9WHfilwN-22">
          <mxGeometry relative="1" as="geometry" />
        </mxCell>
        <mxCell id="UtE5IbcF4sJG9WHfilwN-16" value="comment" style="whiteSpace=wrap;html=1;aspect=fixed;" vertex="1" parent="1">
          <mxGeometry x="1220" y="624.81" width="80" height="80" as="geometry" />
        </mxCell>
        <mxCell id="UtE5IbcF4sJG9WHfilwN-21" style="edgeStyle=orthogonalEdgeStyle;rounded=0;orthogonalLoop=1;jettySize=auto;html=1;exitX=0;exitY=0.5;exitDx=0;exitDy=0;entryX=1;entryY=0.5;entryDx=0;entryDy=0;strokeColor=#0000FF;" edge="1" parent="1" source="UtE5IbcF4sJG9WHfilwN-22" target="UtE5IbcF4sJG9WHfilwN-16">
          <mxGeometry relative="1" as="geometry" />
        </mxCell>
        <mxCell id="UtE5IbcF4sJG9WHfilwN-22" value="reply" style="rhombus;whiteSpace=wrap;html=1;" vertex="1" parent="1">
          <mxGeometry x="1380" y="624.81" width="80" height="80" as="geometry" />
        </mxCell>
        <mxCell id="UtE5IbcF4sJG9WHfilwN-27" style="edgeStyle=orthogonalEdgeStyle;rounded=0;orthogonalLoop=1;jettySize=auto;html=1;exitX=1;exitY=0.5;exitDx=0;exitDy=0;entryX=0;entryY=0.5;entryDx=0;entryDy=0;strokeColor=#00FF00;" edge="1" parent="1" source="UtE5IbcF4sJG9WHfilwN-23" target="UtE5IbcF4sJG9WHfilwN-16">
          <mxGeometry relative="1" as="geometry">
            <mxPoint x="1050" y="664.81" as="sourcePoint" />
          </mxGeometry>
        </mxCell>
        <mxCell id="UtE5IbcF4sJG9WHfilwN-23" value="submit" style="rhombus;whiteSpace=wrap;html=1;" vertex="1" parent="1">
          <mxGeometry x="1000" y="624.81" width="80" height="80" as="geometry" />
        </mxCell>
        <mxCell id="UtE5IbcF4sJG9WHfilwN-24" value="&lt;b&gt;1:M&lt;/b&gt;" style="text;html=1;align=center;verticalAlign=middle;resizable=0;points=[];autosize=1;strokeColor=none;fillColor=none;" vertex="1" parent="1">
          <mxGeometry x="1360" y="674.81" width="40" height="30" as="geometry" />
        </mxCell>
        <mxCell id="UtE5IbcF4sJG9WHfilwN-32" style="edgeStyle=orthogonalEdgeStyle;rounded=0;orthogonalLoop=1;jettySize=auto;html=1;exitX=0.5;exitY=1;exitDx=0;exitDy=0;entryX=0.5;entryY=0;entryDx=0;entryDy=0;" edge="1" parent="1" source="UtE5IbcF4sJG9WHfilwN-28" target="UtE5IbcF4sJG9WHfilwN-16">
          <mxGeometry relative="1" as="geometry" />
        </mxCell>
        <mxCell id="UtE5IbcF4sJG9WHfilwN-28" value="&lt;b&gt;&lt;u&gt;Comment_ID&lt;/u&gt;&lt;/b&gt;" style="ellipse;whiteSpace=wrap;html=1;" vertex="1" parent="1">
          <mxGeometry x="1065" y="542.5" width="90" height="35" as="geometry" />
        </mxCell>
        <mxCell id="UtE5IbcF4sJG9WHfilwN-34" style="edgeStyle=orthogonalEdgeStyle;rounded=0;orthogonalLoop=1;jettySize=auto;html=1;exitX=0.5;exitY=1;exitDx=0;exitDy=0;entryX=0.5;entryY=0;entryDx=0;entryDy=0;" edge="1" parent="1" source="UtE5IbcF4sJG9WHfilwN-29" target="UtE5IbcF4sJG9WHfilwN-16">
          <mxGeometry relative="1" as="geometry" />
        </mxCell>
        <mxCell id="UtE5IbcF4sJG9WHfilwN-29" value="&lt;div&gt;&lt;b&gt;&lt;u&gt;Customer_ID&lt;/u&gt;&lt;/b&gt;&lt;/div&gt;" style="ellipse;whiteSpace=wrap;html=1;" vertex="1" parent="1">
          <mxGeometry x="1165" y="542.5" width="90" height="35" as="geometry" />
        </mxCell>
        <mxCell id="UtE5IbcF4sJG9WHfilwN-35" style="edgeStyle=orthogonalEdgeStyle;rounded=0;orthogonalLoop=1;jettySize=auto;html=1;exitX=0.5;exitY=1;exitDx=0;exitDy=0;entryX=0.5;entryY=0;entryDx=0;entryDy=0;" edge="1" parent="1" source="UtE5IbcF4sJG9WHfilwN-30" target="UtE5IbcF4sJG9WHfilwN-16">
          <mxGeometry relative="1" as="geometry" />
        </mxCell>
        <mxCell id="UtE5IbcF4sJG9WHfilwN-30" value="star" style="ellipse;whiteSpace=wrap;html=1;" vertex="1" parent="1">
          <mxGeometry x="1265" y="542.5" width="90" height="35" as="geometry" />
        </mxCell>
        <mxCell id="UtE5IbcF4sJG9WHfilwN-36" style="edgeStyle=orthogonalEdgeStyle;rounded=0;orthogonalLoop=1;jettySize=auto;html=1;exitX=0.5;exitY=1;exitDx=0;exitDy=0;entryX=0.5;entryY=0;entryDx=0;entryDy=0;" edge="1" parent="1" source="UtE5IbcF4sJG9WHfilwN-31" target="UtE5IbcF4sJG9WHfilwN-16">
          <mxGeometry relative="1" as="geometry" />
        </mxCell>
        <mxCell id="UtE5IbcF4sJG9WHfilwN-31" value="text" style="ellipse;whiteSpace=wrap;html=1;" vertex="1" parent="1">
          <mxGeometry x="1365" y="542.5" width="90" height="35" as="geometry" />
        </mxCell>
        <mxCell id="UtE5IbcF4sJG9WHfilwN-44" style="edgeStyle=orthogonalEdgeStyle;rounded=0;orthogonalLoop=1;jettySize=auto;html=1;exitX=0.5;exitY=1;exitDx=0;exitDy=0;entryX=0.5;entryY=0;entryDx=0;entryDy=0;" edge="1" parent="1" source="UtE5IbcF4sJG9WHfilwN-41" target="UtE5IbcF4sJG9WHfilwN-16">
          <mxGeometry relative="1" as="geometry" />
        </mxCell>
        <mxCell id="UtE5IbcF4sJG9WHfilwN-41" value="likes count" style="ellipse;whiteSpace=wrap;html=1;" vertex="1" parent="1">
          <mxGeometry x="1460" y="542.5" width="90" height="35" as="geometry" />
        </mxCell>
        <mxCell id="UtE5IbcF4sJG9WHfilwN-43" value="&lt;b&gt;M:1&lt;/b&gt;" style="text;html=1;align=center;verticalAlign=middle;resizable=0;points=[];autosize=1;strokeColor=none;fillColor=none;" vertex="1" parent="1">
          <mxGeometry x="1075" y="635.06" width="40" height="30" as="geometry" />
        </mxCell>
      </root>
    </mxGraphModel>
  </diagram>
</mxfile>
